<svg width="154" height="40" viewBox="0 0 154 40" fill="none" xmlns="http://www.w3.org/2000/svg">
  <g fill="#000000">
    <path d="M9.98547 32.1577C6.81214 32.1577 4.3988 31.5711 2.74547 30.3977C1.09214 29.1977 0.212135 27.4111 0.105469 25.0377H5.58547C5.69214 25.9977 6.14547 26.7311 6.94547 27.2377C7.74547 27.7444 8.85214 27.9977 10.2655 27.9977C11.3855 27.9977 12.2521 27.8244 12.8655 27.4777C13.4788 27.1311 13.7855 26.6511 13.7855 26.0377C13.7855 25.4244 13.4521 24.9711 12.7855 24.6777C12.1188 24.3577 10.8921 24.0911 9.10547 23.8777C7.21214 23.6644 5.65214 23.3444 4.42547 22.9177C3.22547 22.4911 2.3188 21.9044 1.70547 21.1577C1.09214 20.4111 0.785469 19.4644 0.785469 18.3177C0.785469 16.3711 1.58547 14.8511 3.18547 13.7577C4.78547 12.6644 6.89214 12.1177 9.50547 12.1177C12.3055 12.1177 14.5055 12.7044 16.1055 13.8777C17.7321 15.0244 18.5721 16.6111 18.6255 18.6377H13.3055C13.2255 17.9177 12.8255 17.3444 12.1055 16.9177C11.4121 16.4911 10.5321 16.2777 9.46547 16.2777C8.42547 16.2777 7.5988 16.4511 6.98547 16.7977C6.3988 17.1444 6.10547 17.6111 6.10547 18.1977C6.10547 18.7844 6.45214 19.2244 7.14547 19.5177C7.8388 19.8111 9.02547 20.0644 10.7055 20.2777C12.6788 20.4911 14.2655 20.7977 15.4655 21.1977C16.6921 21.5711 17.6121 22.1311 18.2255 22.8777C18.8655 23.6244 19.1855 24.6111 19.1855 25.8377C19.1855 27.7844 18.3721 29.3311 16.7455 30.4777C15.1188 31.5977 12.8655 32.1577 9.98547 32.1577ZM32.0655 32.1577C28.9188 32.1577 26.4255 31.2911 24.5855 29.5577C22.7721 27.8244 21.8655 25.4111 21.8655 22.3177C21.8655 20.2911 22.2788 18.5044 23.1055 16.9577C23.9588 15.4111 25.1588 14.2244 26.7055 13.3977C28.2521 12.5444 30.0788 12.1177 32.1855 12.1177C35.3855 12.1177 37.8255 13.0111 39.5055 14.7977C41.1855 16.5577 42.0255 19.0377 42.0255 22.2377V22.6777H26.4255V21.0377H37.8255L36.8255 21.6777C36.7988 20.1577 36.3855 18.9711 35.5855 18.1177C34.8121 17.2377 33.6921 16.7977 32.2255 16.7977C30.7055 16.7977 29.4921 17.2511 28.5855 18.1577C27.7055 19.0644 27.2655 20.3444 27.2655 21.9977V22.3577C27.2655 24.0111 27.7055 25.2777 28.5855 26.1577C29.4655 27.0377 30.7055 27.4777 32.3055 27.4777C33.4521 27.4777 34.3988 27.2644 35.1455 26.8377C35.9188 26.3844 36.4255 25.7577 36.6655 24.9577H41.9055C41.7455 26.3177 41.2521 27.5444 40.4255 28.6377C39.6255 29.7044 38.5055 30.5577 37.0655 31.1977C35.6521 31.8377 33.9855 32.1577 32.0655 32.1577ZM45.3055 12.6377H50.7055V31.6377H45.3055V12.6377ZM48.0255 9.95772C47.0388 9.95772 46.1855 9.61105 45.4655 8.91772C44.7721 8.22439 44.4255 7.38439 44.4255 6.39772C44.4255 5.43772 44.7721 4.61105 45.4655 3.91772C46.1855 3.19772 47.0388 2.83772 48.0255 2.83772C49.0121 2.83772 49.8388 3.18439 50.5055 3.87772C51.1988 4.57105 51.5455 5.41105 51.5455 6.39772C51.5455 7.41105 51.1988 8.26439 50.5055 8.95772C49.8388 9.62439 49.0121 9.95772 48.0255 9.95772ZM55.1055 5.35772H60.5055V19.6777L59.9055 22.1177L60.5055 24.5577V31.6377H55.1055V5.35772ZM60.6655 19.0377C60.7188 17.7844 61.0388 16.6377 61.6255 15.5977C62.2121 14.5577 63.0121 13.7177 64.0255 13.0777C65.0655 12.4377 66.2655 12.1177 67.6255 12.1177C70.2388 12.1177 72.2788 13.0111 73.7455 14.7977C75.2388 16.5844 75.9855 19.0377 75.9855 22.1577C75.9855 24.1844 75.6121 25.9577 74.8655 27.4777C74.1455 28.9977 73.1321 30.1577 71.8255 30.9577C70.5188 31.7577 69.0388 32.1577 67.3855 32.1577C65.4388 32.1577 63.8521 31.5844 62.6255 30.4377C61.4255 29.2644 60.7721 27.5311 60.6655 25.2377H59.1455V19.0377H60.6655ZM65.5455 27.4777C67.0121 27.4777 68.1988 26.9844 69.1055 25.9977C70.0121 25.0111 70.4655 23.7311 70.4655 22.1577C70.4655 20.5844 69.9988 19.3044 69.0655 18.3177C68.1588 17.3311 66.9455 16.8377 65.4255 16.8377C63.9321 16.8377 62.7055 17.3311 61.7455 18.3177C60.7855 19.2777 60.3055 20.5444 60.3055 22.1177C60.3055 23.6911 60.7988 24.9844 61.7855 25.9977C62.7988 26.9844 64.0521 27.4777 65.5455 27.4777ZM88.5855 32.1577C85.4388 32.1577 82.9588 31.2911 81.1455 29.5577C79.3321 27.8244 78.4255 25.4111 78.4255 22.3177C78.4255 20.2911 78.8388 18.5044 79.6655 16.9577C80.5188 15.4111 81.7188 14.2244 83.2655 13.3977C84.8388 12.5444 86.6655 12.1177 88.7455 12.1177C91.9455 12.1177 94.3721 13.0111 96.0255 14.7977C97.7055 16.5577 98.5455 19.0377 98.5455 22.2377V22.6777H82.9455V21.0377H94.3855L93.3855 21.6777C93.3588 20.1577 92.9455 18.9711 92.1455 18.1177C91.3721 17.2377 90.2655 16.7977 88.8255 16.7977C87.3055 16.7977 86.0788 17.2511 85.1455 18.1577C84.2388 19.0644 83.7855 20.3444 83.7855 21.9977V22.3577C83.7855 24.0111 84.2255 25.2777 85.1055 26.1577C85.9855 27.0377 87.2255 27.4777 88.8255 27.4777C89.9721 27.4777 90.9188 27.2644 91.6655 26.8377C92.4388 26.3844 92.9455 25.7577 93.1855 24.9577H98.4655C98.3055 26.3177 97.8121 27.5444 96.9855 28.6377C96.1855 29.7311 95.0655 30.5977 93.6255 31.2377C92.1855 31.8511 90.5055 32.1577 88.5855 32.1577ZM102.145 12.6377H107.545V31.6377H102.145V12.6377ZM106.665 19.7577H107.625C107.705 17.2511 108.399 15.4377 109.705 14.3177C111.012 13.1977 112.839 12.6377 115.185 12.6377H128.545V17.6377H113.185C111.239 17.6377 109.812 18.0377 108.905 18.8377C107.999 19.6111 107.545 20.8377 107.545 22.5177L106.665 19.7577ZM125.305 32.1577C122.932 32.1577 121.079 31.4911 119.745 30.1577C118.412 28.7977 117.745 26.8644 117.745 24.3577V6.83772H123.145V23.7177C123.145 24.8644 123.385 25.7444 123.865 26.3577C124.345 26.9711 125.105 27.2777 126.145 27.2777C127.052 27.2777 127.879 27.0377 128.625 26.5577L130.865 29.9577C130.145 30.5977 129.319 31.1311 128.385 31.5577C127.452 31.9577 126.425 32.1577 125.305 32.1577Z" />
    <path d="M141.66 0.0377197H143.62L133.34 39.1177H131.38L141.66 0.0377197Z" />
    <path d="M150.684 0.0377197H152.644L142.364 39.1177H140.404L150.684 0.0377197Z" />
  </g>
</svg>
